<?xml version="1.0" encoding="UTF-8" standalone="no"?><!DOCTYPE svg PUBLIC "-//W3C//DTD SVG 1.1//EN" "http://www.w3.org/Graphics/SVG/1.1/DTD/svg11.dtd"><svg width="100%" height="100%" viewBox="0 0 691 187" version="1.1" xmlns="http://www.w3.org/2000/svg" xmlns:xlink="http://www.w3.org/1999/xlink" xml:space="preserve" style="fill-rule:evenodd;clip-rule:evenodd;"><g><path id="Shape" d="M54.031,0c-27.241,15.721 -45.605,45.253 -45.605,79.061c0,50.28 40.618,91.102 90.647,91.102c50.029,0 90.646,-40.822 90.646,-91.102c0,-33.808 -18.364,-63.34 -45.604,-79.061c32.062,16.371 54.03,49.664 54.03,88.034c0,54.546 -44.393,98.831 -99.073,98.831c-54.679,0 -99.072,-44.284 -99.072,-98.831c0,-38.37 21.967,-71.663 54.03,-88.034l0.001,0Z" style="fill:#ccc;"/><path id="Shape1" d="M98.913,180.62c-1.583,-0.024 -14.693,-0.096 -28.927,3.871c0.381,-5.092 1.779,-9.14 -1.212,-11.641c-9.637,-4.099 -32.561,-7.313 -43.556,-20.747c-3.483,-4.698 -5.744,-15.884 -6.075,-24.192c-0.415,-10.439 -0.443,-29.329 -0.443,-29.329l8.352,-14.759l-8.51,1.493l-1.056,-80.072l30.245,45.137l15.964,-8.567l35.378,-8.739l35.379,8.739l15.963,8.567l30.246,-45.137l-1.057,80.072l-8.51,-1.493l8.353,14.759c0,0 -0.029,18.89 -0.444,29.329c-0.33,8.308 -2.592,19.494 -6.075,24.192c-10.995,13.434 -33.919,16.648 -43.556,20.747c-2.991,2.501 -1.593,6.549 -1.212,11.641c-15.183,-4.232 -29.087,-3.868 -29.087,-3.868l-0.16,-0.003Z" style="stroke:#000;stroke-width:0.4px;"/><g id="Group"><g id="Oval"><ellipse cx="99.073" cy="70.672" rx="44.014" ry="46.27" style="fill:#969696;"/><ellipse cx="99.073" cy="68.353" rx="44.014" ry="43.951" style="fill:#d5d5d5;"/></g><g id="Shape2"><path d="M115.992,58.225l0.257,0.022l0.256,0.037l0.253,0.052l0.249,0.068l0.245,0.081l0.24,0.097l0.234,0.11l0.226,0.124l0.219,0.137l0.211,0.15l0.201,0.162l0.191,0.173l0.181,0.185l0.169,0.195l0.158,0.205l0.145,0.214l0.101,0.159l0.109,0.173l0.106,0.174l0.106,0.174l0.104,0.176l0.103,0.176l0.101,0.176l0.1,0.178l0.099,0.179l0.097,0.179l0.095,0.18l0.094,0.181l0.092,0.182l0.091,0.182l0.089,0.184l0.088,0.184l0.086,0.185l0.085,0.186l0.083,0.187l0.081,0.187l0.079,0.189l0.078,0.189l0.076,0.19l0.075,0.191l0.073,0.192l0.071,0.193l0.069,0.193l0.068,0.194l0.065,0.196l0.065,0.196l0.062,0.196l0.06,0.198l0.059,0.198l0.057,0.2l0.055,0.199l0.053,0.201l0.051,0.202l0.05,0.202l0.047,0.203l0.046,0.204l0.044,0.204l0.042,0.206l0.04,0.206l0.038,0.206l0.037,0.208l0.034,0.208l0.033,0.209l0.03,0.209l0.029,0.211l0.027,0.211l0.025,0.211l0.023,0.213l0.022,0.213l0.019,0.213l0.018,0.215l0.015,0.215l0.014,0.216l0.012,0.216l0.01,0.217l0.009,0.218l0.006,0.218l0.005,0.22l0.002,0.219l0.001,0.218l0,0.158l-0.002,0.156l-0.002,0.155l-0.004,0.154l-0.004,0.155l-0.005,0.155l-0.007,0.154l-0.007,0.154l-0.008,0.153l-0.01,0.154l-0.01,0.154l-0.011,0.153l-0.012,0.152l-0.013,0.153l-0.014,0.152l-0.015,0.152l-0.016,0.152l-0.016,0.152l-0.018,0.151l-0.019,0.151l-0.019,0.151l-0.021,0.151l-0.021,0.15l-0.023,0.15l-0.023,0.149l-0.024,0.15l-0.025,0.149l-0.026,0.149l-0.027,0.148l-0.028,0.148l-0.029,0.149l-0.029,0.147l-0.031,0.147l-0.031,0.147l-0.032,0.147l-0.034,0.146l-0.034,0.146l-0.034,0.145l-0.036,0.146l-0.037,0.145l-0.038,0.144l-0.038,0.144l-0.039,0.144l-0.04,0.144l-0.041,0.143l-0.042,0.143l-0.043,0.143l-0.043,0.142l-0.045,0.141l-0.047,0.148l-0.091,0.275l-0.096,0.28l-0.1,0.279l-0.103,0.277l-0.106,0.275l-0.109,0.273l-0.113,0.272l-0.115,0.27l-0.119,0.269l-0.122,0.267l-0.126,0.265l-0.128,0.263l-0.131,0.261l-0.134,0.26l-0.138,0.257l-0.14,0.256l-0.143,0.254l-0.147,0.252l-0.149,0.25l-0.152,0.247l-0.155,0.246l-0.157,0.244l-0.161,0.242l-0.163,0.24l-0.166,0.238l-0.169,0.235l-0.172,0.234l-0.174,0.231l-0.177,0.229l-0.18,0.227l-0.182,0.225l-0.185,0.222l-0.187,0.22l-0.19,0.218l-0.193,0.215l-0.195,0.213l-0.198,0.211l-0.2,0.209l-0.202,0.206l-0.205,0.203l-0.208,0.201l-0.21,0.199l-0.212,0.196l-0.214,0.193l-0.217,0.191l-0.219,0.189l-0.221,0.186l-0.224,0.183l-0.226,0.181l-0.228,0.178l-0.23,0.175l-0.233,0.173l-0.234,0.169l-0.237,0.168l-0.239,0.164l-0.241,0.161l-0.243,0.159l-0.245,0.156l-0.247,0.153l-0.249,0.15l-0.251,0.147l-0.253,0.144l-0.255,0.141l-0.257,0.139l-0.258,0.135l-0.261,0.132l-0.262,0.129l-0.264,0.126l-0.266,0.123l-0.268,0.12l-0.269,0.116l-0.271,0.114l-0.273,0.11l-0.274,0.107l-0.276,0.103l-0.278,0.1l-0.273,0.095l-0.146,0.05l-0.141,0.046l-0.141,0.046l-0.141,0.044l-0.142,0.044l-0.142,0.043l-0.142,0.042l-0.143,0.041l-0.143,0.041l-0.144,0.039l-0.144,0.039l-0.144,0.038l-0.144,0.037l-0.145,0.036l-0.146,0.035l-0.145,0.034l-0.146,0.034l-0.146,0.032l-0.147,0.032l-0.147,0.031l-0.147,0.029l-0.148,0.029l-0.148,0.028l-0.148,0.028l-0.148,0.026l-0.149,0.025l-0.149,0.024l-0.149,0.024l-0.15,0.022l-0.15,0.022l-0.15,0.021l-0.15,0.019l-0.151,0.019l-0.151,0.018l-0.151,0.017l-0.152,0.016l-0.152,0.015l-0.152,0.014l-0.152,0.013l-0.152,0.012l-0.153,0.011l-0.153,0.011l-0.153,0.009l-0.154,0.008l-0.153,0.008l-0.154,0.006l-0.154,0.005l-0.155,0.005l-0.154,0.003l-0.155,0.003l-0.155,0.001l-0.155,0.001l-0.155,-0.001l-0.155,-0.001l-0.154,-0.003l-0.155,-0.003l-0.154,-0.005l-0.154,-0.005l-0.154,-0.006l-0.154,-0.008l-0.153,-0.008l-0.153,-0.009l-0.154,-0.011l-0.152,-0.011l-0.153,-0.012l-0.152,-0.013l-0.152,-0.014l-0.152,-0.015l-0.151,-0.016l-0.152,-0.017l-0.151,-0.018l-0.15,-0.019l-0.151,-0.019l-0.15,-0.021l-0.15,-0.022l-0.149,-0.022l-0.15,-0.024l-0.149,-0.024l-0.148,-0.025l-0.149,-0.026l-0.148,-0.028l-0.148,-0.028l-0.148,-0.029l-0.147,-0.029l-0.147,-0.031l-0.146,-0.032l-0.146,-0.032l-0.146,-0.034l-0.146,-0.034l-0.145,-0.035l-0.145,-0.036l-0.145,-0.037l-0.144,-0.038l-0.144,-0.039l-0.143,-0.039l-0.143,-0.041l-0.143,-0.041l-0.143,-0.042l-0.142,-0.043l-0.141,-0.044l-0.142,-0.044l-0.141,-0.046l-0.14,-0.046l-0.147,-0.05l-0.273,-0.095l-0.277,-0.1l-0.276,-0.103l-0.275,-0.107l-0.273,-0.11l-0.271,-0.114l-0.269,-0.116l-0.268,-0.12l-0.265,-0.123l-0.265,-0.126l-0.262,-0.129l-0.26,-0.132l-0.259,-0.135l-0.257,-0.138l-0.255,-0.142l-0.252,-0.144l-0.251,-0.147l-0.25,-0.15l-0.247,-0.153l-0.245,-0.156l-0.243,-0.159l-0.241,-0.161l-0.238,-0.164l-0.237,-0.167l-0.235,-0.17l-0.232,-0.173l-0.23,-0.175l-0.229,-0.178l-0.225,-0.181l-0.224,-0.183l-0.222,-0.186l-0.219,-0.188l-0.216,-0.191l-0.215,-0.194l-0.212,-0.196l-0.21,-0.199l-0.207,-0.201l-0.205,-0.203l-0.203,-0.206l-0.2,-0.209l-0.197,-0.211l-0.196,-0.213l-0.192,-0.215l-0.19,-0.218l-0.188,-0.22l-0.184,-0.222l-0.183,-0.225l-0.18,-0.227l-0.176,-0.229l-0.175,-0.231l-0.171,-0.234l-0.169,-0.235l-0.166,-0.238l-0.164,-0.24l-0.16,-0.242l-0.158,-0.244l-0.155,-0.245l-0.152,-0.248l-0.149,-0.25l-0.146,-0.252l-0.144,-0.254l-0.14,-0.256l-0.137,-0.257l-0.135,-0.26l-0.131,-0.261l-0.128,-0.263l-0.125,-0.265l-0.122,-0.267l-0.119,-0.269l-0.116,-0.27l-0.112,-0.272l-0.11,-0.273l-0.106,-0.276l-0.103,-0.276l-0.099,-0.279l-0.097,-0.28l-0.091,-0.275l-0.047,-0.148l-0.044,-0.141l-0.044,-0.143l-0.043,-0.142l-0.041,-0.143l-0.041,-0.143l-0.04,-0.144l-0.04,-0.143l-0.038,-0.145l-0.038,-0.144l-0.036,-0.145l-0.036,-0.146l-0.035,-0.145l-0.034,-0.146l-0.033,-0.146l-0.032,-0.147l-0.032,-0.147l-0.03,-0.147l-0.03,-0.148l-0.029,-0.148l-0.028,-0.148l-0.026,-0.148l-0.026,-0.149l-0.026,-0.149l-0.024,-0.15l-0.023,-0.149l-0.022,-0.15l-0.022,-0.15l-0.02,-0.151l-0.02,-0.151l-0.018,-0.151l-0.018,-0.151l-0.017,-0.152l-0.016,-0.152l-0.015,-0.152l-0.014,-0.152l-0.013,-0.153l-0.012,-0.153l-0.011,-0.153l-0.01,-0.153l-0.009,-0.154l-0.009,-0.153l-0.007,-0.154l-0.006,-0.155l-0.006,-0.154l-0.004,-0.155l-0.003,-0.155l-0.003,-0.155l-0.001,-0.155l-0.001,-0.158l0.001,-0.219l0.003,-0.221l0.005,-0.22l0.006,-0.22l0.009,-0.219l0.011,-0.218l0.012,-0.217l0.014,-0.217l0.017,-0.216l0.018,-0.215l0.02,-0.215l0.022,-0.213l0.024,-0.213l0.026,-0.212l0.028,-0.212l0.03,-0.211l0.031,-0.209l0.034,-0.21l0.035,-0.208l0.038,-0.208l0.039,-0.207l0.042,-0.206l0.043,-0.205l0.045,-0.204l0.047,-0.204l0.049,-0.203l0.05,-0.202l0.053,-0.201l0.054,-0.2l0.056,-0.2l0.058,-0.198l0.06,-0.198l0.062,-0.197l0.063,-0.196l0.065,-0.195l0.067,-0.194l0.069,-0.194l0.07,-0.192l0.072,-0.192l0.074,-0.191l0.075,-0.19l0.077,-0.189l0.079,-0.188l0.08,-0.187l0.082,-0.186l0.084,-0.186l0.085,-0.184l0.086,-0.184l0.089,-0.183l0.089,-0.182l0.091,-0.181l0.093,-0.18l0.094,-0.18l0.095,-0.178l0.097,-0.178l0.098,-0.177l0.1,-0.176l0.101,-0.176l0.102,-0.174l0.104,-0.174l0.105,-0.173l0.106,-0.172l0.108,-0.172l0.1,-0.158l0.145,-0.213l0.158,-0.205l0.169,-0.195l0.181,-0.185l0.191,-0.174l0.202,-0.162l0.21,-0.149l0.219,-0.138l0.227,-0.123l0.233,-0.111l0.24,-0.096l0.245,-0.082l0.25,-0.067l0.253,-0.052l0.255,-0.037l0.258,-0.022l0.258,-0.007l0.258,0.009l0.258,0.024l0.255,0.039l0.253,0.054l0.249,0.069l0.244,0.084l0.239,0.098l0.233,0.112l0.226,0.125l0.218,0.139l0.209,0.151l0.2,0.164l0.19,0.175l0.179,0.186l0.168,0.196l0.156,0.206l0.144,0.215l0.13,0.223l0.117,0.23l0.104,0.237l0.089,0.243l0.074,0.247l0.06,0.252l0.045,0.254l0.029,0.257l0.015,0.258l-0.001,0.258l-0.017,0.258l-0.031,0.256l-0.047,0.254l-0.062,0.251l-0.076,0.247l-0.091,0.242l-0.105,0.236l-0.119,0.229l-0.132,0.222l-0.084,0.132l-0.074,0.119l-0.073,0.118l-0.071,0.118l-0.071,0.117l-0.068,0.118l-0.068,0.117l-0.066,0.116l-0.064,0.117l-0.064,0.116l-0.062,0.116l-0.061,0.116l-0.059,0.116l-0.058,0.116l-0.057,0.116l-0.056,0.115l-0.054,0.116l-0.054,0.115l-0.052,0.115l-0.05,0.116l-0.05,0.115l-0.048,0.116l-0.047,0.116l-0.046,0.115l-0.045,0.116l-0.044,0.116l-0.042,0.116l-0.042,0.117l-0.04,0.117l-0.039,0.117l-0.038,0.117l-0.037,0.118l-0.035,0.118l-0.035,0.119l-0.034,0.119l-0.032,0.119l-0.031,0.12l-0.031,0.121l-0.029,0.121l-0.028,0.122l-0.027,0.123l-0.026,0.123l-0.025,0.124l-0.023,0.124l-0.023,0.126l-0.022,0.126l-0.02,0.127l-0.019,0.129l-0.019,0.129l-0.017,0.129l-0.016,0.132l-0.015,0.132l-0.013,0.133l-0.013,0.134l-0.011,0.135l-0.011,0.137l-0.009,0.138l-0.008,0.139l-0.007,0.14l-0.005,0.141l-0.004,0.143l-0.004,0.144l-0.001,0.146l-0.001,0.149l0,0.098l0.001,0.101l0.002,0.1l0.002,0.099l0.003,0.1l0.003,0.1l0.004,0.099l0.005,0.099l0.005,0.099l0.006,0.098l0.007,0.099l0.007,0.098l0.008,0.098l0.008,0.098l0.009,0.098l0.01,0.098l0.01,0.097l0.01,0.097l0.012,0.097l0.012,0.097l0.012,0.097l0.013,0.096l0.014,0.096l0.014,0.096l0.015,0.096l0.016,0.095l0.016,0.095l0.016,0.095l0.018,0.095l0.017,0.095l0.019,0.094l0.019,0.094l0.019,0.094l0.02,0.094l0.021,0.094l0.021,0.093l0.022,0.093l0.022,0.093l0.023,0.093l0.023,0.092l0.024,0.092l0.025,0.092l0.025,0.092l0.025,0.092l0.026,0.091l0.027,0.091l0.027,0.091l0.028,0.091l0.028,0.09l0.027,0.084l0.061,0.186l0.062,0.178l0.063,0.178l0.066,0.176l0.068,0.176l0.069,0.174l0.072,0.174l0.074,0.172l0.076,0.172l0.078,0.17l0.08,0.169l0.082,0.168l0.084,0.167l0.085,0.166l0.088,0.164l0.09,0.164l0.091,0.162l0.094,0.161l0.095,0.16l0.097,0.158l0.1,0.158l0.1,0.156l0.103,0.155l0.105,0.153l0.106,0.152l0.108,0.151l0.11,0.15l0.112,0.148l0.113,0.146l0.115,0.146l0.117,0.143l0.118,0.143l0.12,0.141l0.122,0.14l0.124,0.138l0.125,0.136l0.126,0.135l0.128,0.134l0.13,0.132l0.131,0.13l0.133,0.129l0.134,0.127l0.136,0.125l0.138,0.124l0.138,0.123l0.141,0.12l0.141,0.119l0.143,0.117l0.145,0.116l0.146,0.114l0.147,0.112l0.148,0.11l0.15,0.109l0.152,0.106l0.152,0.105l0.154,0.103l0.155,0.102l0.156,0.099l0.158,0.098l0.158,0.095l0.16,0.094l0.161,0.092l0.163,0.09l0.163,0.088l0.165,0.086l0.165,0.084l0.167,0.082l0.168,0.08l0.169,0.078l0.17,0.076l0.171,0.074l0.172,0.072l0.173,0.07l0.174,0.068l0.176,0.065l0.176,0.064l0.183,0.064l0.083,0.028l0.089,0.029l0.089,0.029l0.09,0.028l0.09,0.028l0.09,0.027l0.09,0.027l0.09,0.026l0.091,0.026l0.091,0.025l0.092,0.024l0.091,0.024l0.092,0.024l0.092,0.023l0.092,0.022l0.092,0.022l0.092,0.021l0.093,0.02l0.093,0.021l0.093,0.019l0.094,0.019l0.094,0.018l0.093,0.018l0.094,0.017l0.094,0.017l0.095,0.016l0.095,0.015l0.094,0.015l0.095,0.015l0.096,0.013l0.095,0.013l0.096,0.013l0.096,0.012l0.096,0.011l0.096,0.011l0.097,0.01l0.096,0.01l0.097,0.009l0.097,0.008l0.097,0.008l0.098,0.007l0.097,0.007l0.098,0.006l0.098,0.005l0.098,0.005l0.099,0.004l0.099,0.003l0.098,0.003l0.099,0.002l0.1,0.002l0.099,0.001l0.099,0l0.1,0l0.099,-0.001l0.099,-0.002l0.099,-0.002l0.099,-0.003l0.098,-0.003l0.099,-0.004l0.098,-0.005l0.098,-0.005l0.098,-0.006l0.098,-0.007l0.097,-0.007l0.097,-0.008l0.098,-0.008l0.096,-0.009l0.097,-0.01l0.096,-0.01l0.096,-0.011l0.097,-0.011l0.096,-0.012l0.095,-0.013l0.096,-0.013l0.095,-0.013l0.095,-0.015l0.095,-0.015l0.095,-0.015l0.094,-0.016l0.094,-0.017l0.094,-0.017l0.094,-0.018l0.094,-0.018l0.093,-0.019l0.093,-0.02l0.093,-0.02l0.093,-0.02l0.093,-0.021l0.092,-0.022l0.092,-0.022l0.092,-0.023l0.092,-0.024l0.091,-0.024l0.091,-0.024l0.091,-0.025l0.091,-0.026l0.09,-0.026l0.091,-0.027l0.09,-0.027l0.09,-0.028l0.089,-0.028l0.09,-0.029l0.089,-0.029l0.082,-0.028l0.184,-0.064l0.176,-0.064l0.175,-0.065l0.174,-0.068l0.173,-0.07l0.172,-0.072l0.172,-0.074l0.169,-0.076l0.169,-0.078l0.168,-0.08l0.167,-0.082l0.166,-0.084l0.164,-0.086l0.164,-0.088l0.162,-0.09l0.161,-0.092l0.16,-0.094l0.159,-0.095l0.157,-0.098l0.157,-0.099l0.155,-0.102l0.153,-0.103l0.153,-0.105l0.151,-0.106l0.15,-0.109l0.149,-0.11l0.147,-0.112l0.146,-0.114l0.144,-0.116l0.143,-0.117l0.142,-0.119l0.14,-0.12l0.139,-0.123l0.137,-0.124l0.136,-0.125l0.134,-0.127l0.133,-0.129l0.131,-0.13l0.13,-0.132l0.128,-0.134l0.127,-0.135l0.125,-0.136l0.123,-0.138l0.122,-0.14l0.12,-0.141l0.119,-0.143l0.116,-0.143l0.115,-0.146l0.114,-0.146l0.111,-0.148l0.11,-0.15l0.108,-0.151l0.107,-0.152l0.104,-0.153l0.103,-0.155l0.101,-0.156l0.099,-0.158l0.097,-0.158l0.096,-0.16l0.093,-0.161l0.092,-0.162l0.089,-0.164l0.088,-0.164l0.086,-0.166l0.084,-0.167l0.082,-0.168l0.08,-0.169l0.077,-0.17l0.076,-0.172l0.074,-0.172l0.072,-0.174l0.07,-0.174l0.067,-0.176l0.066,-0.176l0.064,-0.178l0.061,-0.178l0.061,-0.186l0.027,-0.084l0.028,-0.09l0.028,-0.091l0.027,-0.091l0.027,-0.091l0.026,-0.091l0.026,-0.092l0.025,-0.091l0.024,-0.093l0.024,-0.092l0.024,-0.092l0.023,-0.093l0.022,-0.093l0.022,-0.093l0.021,-0.093l0.02,-0.094l0.02,-0.094l0.02,-0.094l0.019,-0.094l0.018,-0.094l0.018,-0.095l0.017,-0.095l0.017,-0.095l0.016,-0.095l0.015,-0.096l0.015,-0.095l0.014,-0.096l0.014,-0.096l0.013,-0.097l0.013,-0.096l0.012,-0.097l0.011,-0.097l0.011,-0.097l0.01,-0.097l0.009,-0.098l0.009,-0.098l0.009,-0.097l0.007,-0.099l0.008,-0.098l0.006,-0.098l0.006,-0.099l0.005,-0.099l0.005,-0.099l0.004,-0.1l0.004,-0.099l0.002,-0.1l0.003,-0.1l0.001,-0.1l0.001,-0.1l0,-0.098l0,-0.15l-0.002,-0.147l-0.003,-0.146l-0.004,-0.144l-0.006,-0.143l-0.006,-0.142l-0.008,-0.14l-0.009,-0.139l-0.01,-0.138l-0.011,-0.137l-0.013,-0.136l-0.013,-0.134l-0.015,-0.134l-0.015,-0.133l-0.017,-0.131l-0.018,-0.131l-0.019,-0.129l-0.02,-0.128l-0.021,-0.128l-0.022,-0.127l-0.024,-0.126l-0.024,-0.125l-0.026,-0.125l-0.026,-0.123l-0.028,-0.123l-0.028,-0.123l-0.03,-0.121l-0.031,-0.121l-0.032,-0.121l-0.033,-0.12l-0.034,-0.119l-0.035,-0.119l-0.036,-0.118l-0.038,-0.118l-0.038,-0.118l-0.04,-0.117l-0.04,-0.117l-0.042,-0.117l-0.043,-0.116l-0.044,-0.116l-0.045,-0.116l-0.047,-0.116l-0.047,-0.115l-0.049,-0.116l-0.05,-0.115l-0.051,-0.115l-0.052,-0.116l-0.054,-0.115l-0.055,-0.115l-0.056,-0.115l-0.057,-0.115l-0.059,-0.115l-0.06,-0.116l-0.061,-0.115l-0.062,-0.115l-0.064,-0.116l-0.065,-0.116l-0.066,-0.116l-0.068,-0.116l-0.069,-0.117l-0.071,-0.116l-0.072,-0.117l-0.073,-0.117l-0.083,-0.131l-0.132,-0.222l-0.119,-0.229l-0.105,-0.236l-0.091,-0.242l-0.076,-0.247l-0.062,-0.251l-0.047,-0.254l-0.031,-0.256l-0.016,-0.258l-0.001,-0.259l0.014,-0.258l0.03,-0.256l0.044,-0.255l0.06,-0.251l0.075,-0.247l0.089,-0.243l0.103,-0.237l0.117,-0.23l0.131,-0.223l0.143,-0.215l0.156,-0.206l0.168,-0.196l0.179,-0.186l0.19,-0.175l0.2,-0.164l0.21,-0.151l0.218,-0.139l0.226,-0.125l0.232,-0.112l0.239,-0.098l0.245,-0.084l0.249,-0.069l0.252,-0.054l0.256,-0.039l0.257,-0.024l0.258,-0.009l0.259,0.007Z" style="fill:#515151;"/><g><path d="M99.446,32.681l0.247,0.028l0.246,0.042l0.242,0.057l0.239,0.07l0.235,0.084l0.229,0.097l0.223,0.109l0.217,0.123l0.21,0.134l0.201,0.147l0.193,0.157l0.183,0.169l0.174,0.178l0.163,0.188l0.152,0.198l0.14,0.205l0.129,0.213l0.116,0.22l0.104,0.227l0.09,0.232l0.077,0.237l0.063,0.241l0.05,0.244l0.035,0.246l0.021,0.248l0.007,0.249l0,36.714l-0.007,0.249l-0.021,0.248l-0.035,0.246l-0.05,0.244l-0.063,0.241l-0.077,0.237l-0.09,0.232l-0.104,0.226l-0.116,0.221l-0.129,0.213l-0.14,0.205l-0.152,0.197l-0.163,0.189l-0.174,0.178l-0.183,0.168l-0.193,0.158l-0.201,0.146l-0.21,0.135l-0.217,0.122l-0.223,0.11l-0.229,0.097l-0.235,0.084l-0.239,0.07l-0.242,0.056l-0.246,0.043l-0.247,0.028l-0.248,0.014l-0.249,0l-0.249,-0.014l-0.247,-0.028l-0.246,-0.043l-0.242,-0.056l-0.239,-0.07l-0.235,-0.084l-0.229,-0.097l-0.223,-0.11l-0.217,-0.122l-0.21,-0.135l-0.201,-0.146l-0.193,-0.158l-0.183,-0.168l-0.174,-0.178l-0.163,-0.189l-0.152,-0.197l-0.14,-0.205l-0.129,-0.213l-0.116,-0.221l-0.103,-0.226l-0.091,-0.232l-0.077,-0.237l-0.063,-0.241l-0.049,-0.244l-0.036,-0.246l-0.021,-0.248l-0.007,-0.249l0,-36.714l0.007,-0.249l0.021,-0.248l0.036,-0.246l0.049,-0.244l0.063,-0.241l0.077,-0.237l0.091,-0.232l0.103,-0.227l0.116,-0.22l0.129,-0.213l0.14,-0.205l0.152,-0.198l0.163,-0.188l0.174,-0.178l0.183,-0.169l0.193,-0.157l0.201,-0.147l0.21,-0.134l0.217,-0.123l0.223,-0.109l0.229,-0.097l0.235,-0.084l0.239,-0.07l0.242,-0.057l0.246,-0.042l0.247,-0.028l0.249,-0.015l0.249,0l0.248,0.015Z" style="fill:#a80000;"/><path d="M99.272,32.669l0.157,0.01l0.156,0.016l0.156,0.021l0.155,0.027l0.154,0.033l0.153,0.038l0.151,0.043l0.15,0.049l0.148,0.054l0.145,0.06l0.144,0.065l0.141,0.07l0.138,0.075l0.136,0.08l0.132,0.085l0.13,0.089l0.126,0.095l0.123,0.098l0.119,0.103l0.115,0.108l0.111,0.111l0.107,0.115l0.103,0.119l0.099,0.123l11.182,14.45l0.094,0.126l0.089,0.13l0.085,0.132l0.08,0.136l0.075,0.138l0.07,0.142l0.065,0.143l0.059,0.146l0.054,0.147l0.049,0.15l0.044,0.151l0.038,0.153l0.032,0.154l0.027,0.155l0.021,0.156l0.015,0.157l0.01,0.157l0.004,0.157l-0.001,0.158l-0.007,0.157l-0.013,0.157l-0.018,0.156l-0.025,0.156l-0.029,0.154l-0.036,0.154l-0.04,0.152l-0.047,0.15l-0.051,0.149l-0.057,0.147l-0.063,0.144l-0.067,0.142l-0.073,0.14l-0.077,0.137l-0.083,0.134l-0.087,0.131l-0.092,0.128l-0.096,0.125l-0.101,0.12l-0.105,0.117l-0.109,0.114l-0.114,0.109l-0.117,0.105l-0.121,0.101l-0.124,0.096l-0.128,0.092l-0.131,0.087l-0.135,0.082l-0.137,0.078l-0.139,0.072l-0.143,0.067l-0.144,0.063l-0.147,0.056l-0.149,0.052l-0.15,0.046l-0.152,0.041l-0.154,0.035l-0.154,0.03l-0.156,0.024l-0.156,0.018l-0.157,0.013l-0.157,0.007l-0.158,0.001l-0.157,-0.004l-0.157,-0.01l-0.157,-0.016l-0.156,-0.021l-0.155,-0.027l-0.154,-0.033l-0.153,-0.038l-0.151,-0.043l-0.15,-0.049l-0.147,-0.055l-0.146,-0.059l-0.143,-0.065l-0.141,-0.07l-0.139,-0.075l-0.135,-0.08l-0.133,-0.085l-0.129,-0.09l-0.126,-0.094l-0.123,-0.098l-0.119,-0.103l-0.115,-0.108l-0.112,-0.111l-0.107,-0.115l-0.103,-0.119l-0.098,-0.123l-11.183,-14.45l-0.094,-0.126l-0.089,-0.13l-0.085,-0.133l-0.08,-0.135l-0.075,-0.139l-0.069,-0.141l-0.065,-0.143l-0.06,-0.146l-0.054,-0.148l-0.049,-0.149l-0.043,-0.152l-0.038,-0.152l-0.033,-0.154l-0.026,-0.155l-0.022,-0.156l-0.015,-0.157l-0.01,-0.157l-0.004,-0.158l0.001,-0.157l0.008,-0.157l0.012,-0.157l0.019,-0.156l0.024,-0.156l0.03,-0.155l0.035,-0.153l0.041,-0.152l0.046,-0.15l0.052,-0.149l0.057,-0.147l0.062,-0.144l0.067,-0.143l0.073,-0.139l0.078,-0.137l0.082,-0.134l0.087,-0.131l0.092,-0.128l0.096,-0.125l0.101,-0.121l0.106,-0.117l0.109,-0.113l0.113,-0.109l0.117,-0.105l0.121,-0.101l0.125,-0.096l0.128,-0.092l0.131,-0.087l0.134,-0.082l0.137,-0.078l0.14,-0.072l0.142,-0.068l0.145,-0.062l0.146,-0.057l0.149,-0.051l0.151,-0.046l0.152,-0.041l0.153,-0.035l0.155,-0.03l0.155,-0.024l0.157,-0.018l0.157,-0.013l0.157,-0.007l0.157,-0.001l0.158,0.004Z" style="fill:#a80000;"/><path d="M99.189,32.666l0.158,0.007l0.156,0.013l0.157,0.018l0.155,0.024l0.155,0.03l0.153,0.035l0.152,0.041l0.151,0.046l0.149,0.051l0.146,0.057l0.145,0.062l0.142,0.068l0.14,0.072l0.137,0.078l0.134,0.082l0.131,0.087l0.128,0.092l0.125,0.096l0.121,0.101l0.117,0.105l0.113,0.109l0.11,0.113l0.105,0.117l0.101,0.121l0.096,0.125l0.092,0.128l0.087,0.131l0.083,0.134l0.077,0.137l0.073,0.139l0.067,0.143l0.062,0.144l0.057,0.147l0.052,0.149l0.046,0.15l0.041,0.152l0.035,0.153l0.03,0.155l0.024,0.156l0.019,0.156l0.013,0.157l0.007,0.157l0.001,0.157l-0.004,0.158l-0.01,0.157l-0.015,0.157l-0.022,0.156l-0.026,0.155l-0.033,0.154l-0.038,0.152l-0.043,0.152l-0.049,0.149l-0.054,0.148l-0.06,0.146l-0.064,0.143l-0.07,0.141l-0.075,0.139l-0.08,0.135l-0.085,0.133l-0.089,0.13l-0.094,0.126l-11.183,14.45l-0.098,0.123l-0.103,0.119l-0.107,0.115l-0.112,0.111l-0.115,0.108l-0.119,0.103l-0.122,0.098l-0.127,0.094l-0.129,0.09l-0.133,0.085l-0.135,0.08l-0.139,0.075l-0.141,0.07l-0.143,0.065l-0.146,0.059l-0.147,0.055l-0.15,0.049l-0.151,0.043l-0.153,0.038l-0.154,0.033l-0.155,0.027l-0.156,0.021l-0.157,0.016l-0.157,0.01l-0.157,0.004l-0.157,-0.001l-0.158,-0.007l-0.157,-0.013l-0.156,-0.018l-0.155,-0.024l-0.155,-0.03l-0.154,-0.035l-0.152,-0.041l-0.15,-0.046l-0.149,-0.052l-0.147,-0.056l-0.144,-0.063l-0.142,-0.067l-0.14,-0.072l-0.137,-0.078l-0.134,-0.082l-0.132,-0.087l-0.127,-0.092l-0.125,-0.096l-0.121,-0.101l-0.117,-0.105l-0.113,-0.109l-0.11,-0.114l-0.105,-0.117l-0.101,-0.12l-0.096,-0.125l-0.092,-0.128l-0.087,-0.131l-0.083,-0.134l-0.077,-0.137l-0.073,-0.14l-0.067,-0.142l-0.063,-0.144l-0.057,-0.147l-0.051,-0.149l-0.046,-0.15l-0.041,-0.152l-0.036,-0.154l-0.029,-0.154l-0.024,-0.156l-0.019,-0.156l-0.013,-0.157l-0.007,-0.157l-0.001,-0.158l0.004,-0.157l0.01,-0.157l0.015,-0.157l0.021,-0.156l0.027,-0.155l0.033,-0.154l0.038,-0.153l0.043,-0.151l0.049,-0.15l0.054,-0.147l0.06,-0.146l0.064,-0.143l0.07,-0.142l0.075,-0.138l0.08,-0.136l0.085,-0.132l0.089,-0.13l0.094,-0.126l11.182,-14.45l0.099,-0.123l0.103,-0.119l0.107,-0.115l0.111,-0.111l0.116,-0.108l0.119,-0.103l0.122,-0.098l0.126,-0.095l0.13,-0.089l0.132,-0.085l0.136,-0.08l0.138,-0.075l0.141,-0.07l0.144,-0.065l0.145,-0.06l0.148,-0.054l0.15,-0.049l0.151,-0.043l0.153,-0.038l0.154,-0.033l0.155,-0.027l0.156,-0.021l0.156,-0.016l0.158,-0.01l0.157,-0.004l0.157,0.001Z" style="fill:#a80000;"/></g></g></g><g id="Group1"><path id="Shape3" d="M76.605,152.968l-37.895,-30.559c0,0 -2.243,24.773 16.349,34.515c13.265,5.498 21.546,-3.956 21.546,-3.956Z" style="fill:#a80000;"/><path id="Shape4" d="M121.331,152.968l37.895,-30.559c0,0 2.243,24.773 -16.348,34.515c-13.266,5.498 -21.547,-3.956 -21.547,-3.956Z" style="fill:#a80000;"/></g></g><g><g><path d="M221.204,38.994l15.598,0l0,46.64l19.268,0l0,-46.64l15.597,0l0,108.878l-15.597,0l0,-48.475l-19.268,0l0,48.475l-15.598,0l0,-108.878l0,0Z" style="fill:#a80000;fill-rule:nonzero;"/><path d="M286.347,38.994l46.488,0l0,14.68l-30.89,0l0,31.96l26.914,0l0,14.68l-26.914,0l0,31.96l30.89,0l0,15.598l-46.488,0l0,-108.878l0,0Z" style="fill:#a80000;fill-rule:nonzero;"/><path d="M342.927,38.994l15.598,0l0,93.28l30.89,0l0,15.598l-46.488,0l0,-108.878l0,0Z" style="fill:#a80000;fill-rule:nonzero;"/><path d="M399.508,38.994l15.597,0l0,93.28l30.89,0l0,15.598l-46.487,0l0,-108.878l0,0Z" style="fill:#a80000;fill-rule:nonzero;"/></g><g><path d="M456.087,38.994l15.598,0l0,93.28l30.89,0l0,15.598l-46.488,0l0,-108.878l0,0Z" style="fill-rule:nonzero;"/><path d="M536.523,70.342l-0.306,0l-7.646,39.453l15.598,0l-7.646,-39.453l0,0Zm-6.576,-31.348l12.998,0l24.314,108.878l-15.597,0l-4.588,-23.397l-21.255,0l-4.588,23.397l-15.598,0l24.314,-108.878l0,0Z" style="fill-rule:nonzero;"/><path d="M574.906,38.994l22.784,0c4.996,0 9.252,0.764 12.769,2.293c3.517,1.529 6.397,3.568 8.64,6.117c2.243,2.549 3.848,5.48 4.817,8.793c0.969,3.313 1.453,6.754 1.453,10.322l0,3.976c0,2.956 -0.23,5.454 -0.688,7.493c-0.459,2.039 -1.147,3.823 -2.065,5.352c-0.917,1.529 -2.039,2.88 -3.364,4.052c-1.325,1.173 -2.855,2.269 -4.588,3.288c3.67,1.733 6.372,4.307 8.105,7.723c1.733,3.415 2.6,7.977 2.6,13.686l0,6.116c0,9.584 -2.32,16.923 -6.958,22.021c-4.639,5.097 -12.055,7.646 -22.25,7.646l-21.255,0l0,-108.878l0,0Zm15.597,93.28l6.728,0c3.161,0 5.633,-0.459 7.417,-1.376c1.784,-0.918 3.135,-2.192 4.053,-3.823c0.917,-1.631 1.478,-3.568 1.682,-5.811c0.203,-2.243 0.305,-4.69 0.305,-7.34c0,-2.753 -0.153,-5.149 -0.458,-7.188c-0.306,-2.038 -0.943,-3.746 -1.912,-5.122c-0.968,-1.376 -2.319,-2.421 -4.052,-3.135c-1.733,-0.714 -4.027,-1.07 -6.881,-1.07l-6.882,0l0,34.865Zm0,-48.628l7.035,0c5.199,0 8.69,-1.3 10.474,-3.899c1.785,-2.6 2.676,-6.398 2.676,-11.393c0,-4.894 -0.994,-8.564 -2.981,-11.01c-1.988,-2.447 -5.582,-3.67 -10.781,-3.67l-6.423,0l0,29.972Z" style="fill-rule:nonzero;"/><path d="M690.512,70.342l-15.597,0l0,-3.517c0,-3.568 -0.842,-6.652 -2.523,-9.252c-1.683,-2.599 -4.512,-3.899 -8.488,-3.899c-2.141,0 -3.899,0.407 -5.276,1.223c-1.376,0.816 -2.446,1.86 -3.211,3.135c-0.764,1.274 -1.3,2.752 -1.605,4.434c-0.306,1.683 -0.459,3.441 -0.459,5.276c0,2.141 0.076,3.951 0.229,5.429c0.153,1.478 0.535,2.752 1.147,3.823c0.612,1.07 1.504,2.013 2.676,2.829c1.172,0.815 2.778,1.631 4.817,2.447l11.928,4.74c3.466,1.325 6.27,2.88 8.41,4.664c2.141,1.784 3.798,3.874 4.97,6.27c1.173,2.396 1.963,5.148 2.371,8.257c0.407,3.11 0.611,6.653 0.611,10.628c0,4.588 -0.459,8.844 -1.376,12.769c-0.918,3.925 -2.421,7.289 -4.511,10.093c-2.09,2.803 -4.868,5.021 -8.334,6.652c-3.466,1.631 -7.697,2.446 -12.692,2.446c-3.772,0 -7.29,-0.662 -10.552,-1.987c-3.262,-1.326 -6.066,-3.135 -8.411,-5.429c-2.344,-2.294 -4.205,-5.021 -5.581,-8.181c-1.376,-3.161 -2.065,-6.576 -2.065,-10.246l0,-5.811l15.598,0l0,4.894c0,2.854 0.841,5.428 2.523,7.722c1.683,2.294 4.511,3.441 8.488,3.441c2.65,0 4.714,-0.383 6.193,-1.147c1.478,-0.765 2.6,-1.835 3.364,-3.211c0.765,-1.377 1.249,-3.084 1.452,-5.123c0.205,-2.04 0.307,-4.282 0.307,-6.729c0,-2.854 -0.102,-5.199 -0.307,-7.034c-0.203,-1.835 -0.637,-3.313 -1.299,-4.435c-0.663,-1.121 -1.58,-2.039 -2.753,-2.752c-1.172,-0.714 -2.727,-1.478 -4.664,-2.294l-11.163,-4.588c-6.728,-2.752 -11.239,-6.397 -13.533,-10.933c-2.294,-4.537 -3.441,-10.221 -3.441,-17.051c0,-4.077 0.561,-7.952 1.682,-11.622c1.122,-3.67 2.778,-6.83 4.97,-9.48c2.192,-2.651 4.97,-4.767 8.334,-6.347c3.364,-1.58 7.29,-2.37 11.775,-2.37c3.874,0 7.416,0.714 10.628,2.141c3.211,1.427 5.964,3.313 8.257,5.658c2.294,2.345 4.053,4.97 5.276,7.875c1.224,2.906 1.835,5.888 1.835,8.946l0,7.646Z" style="fill-rule:nonzero;"/></g></g></svg>