<?xml version="1.0" encoding="UTF-8" standalone="no"?><!DOCTYPE svg PUBLIC "-//W3C//DTD SVG 1.1//EN" "http://www.w3.org/Graphics/SVG/1.1/DTD/svg11.dtd"><svg width="100%" height="100%" viewBox="0 0 958 226" version="1.1" xmlns="http://www.w3.org/2000/svg" xmlns:xlink="http://www.w3.org/1999/xlink" xml:space="preserve" style="fill-rule:evenodd;clip-rule:evenodd;stroke-linejoin:round;stroke-miterlimit:1.41421;"><g><g><path d="M0,1.873l31.838,0l0,95.201l39.329,0l0,-95.201l31.837,0l0,222.239l-31.837,0l0,-98.946l-39.329,0l0,98.946l-31.838,0l0,-222.239Z" style="fill:#a80000;fill-rule:nonzero;"/><path d="M132.969,1.873l94.889,0l0,29.965l-63.051,0l0,65.236l54.936,0l0,29.965l-54.936,0l0,65.236l63.051,0l0,31.837l-94.889,0l0,-222.239Z" style="fill:#a80000;fill-rule:nonzero;"/><path d="M248.459,1.873l31.838,0l0,190.402l63.051,0l0,31.837l-94.889,0l0,-222.239Z" style="fill:#a80000;fill-rule:nonzero;"/><path d="M363.949,1.873l31.837,0l0,190.402l63.052,0l0,31.837l-94.889,0l0,-222.239Z" style="fill:#a80000;fill-rule:nonzero;"/></g><g><path d="M479.438,1.873l31.838,0l0,190.402l63.051,0l0,31.837l-94.889,0l0,-222.239Z" style="fill-rule:nonzero;"/><path d="M643.621,65.86l-0.624,0l-15.607,80.531l31.838,0l-15.607,-80.531Zm-13.422,-63.987l26.532,0l49.629,222.239l-31.838,0l-9.364,-47.756l-43.386,0l-9.364,47.756l-31.838,0l49.629,-222.239Z" style="fill-rule:nonzero;"/><path d="M721.967,1.873l46.508,0c10.196,0 18.884,1.56 26.063,4.682c7.179,3.121 13.058,7.283 17.636,12.485c4.578,5.202 7.855,11.185 9.832,17.948c1.977,6.763 2.965,13.786 2.965,21.069l0,8.115c0,6.035 -0.468,11.133 -1.404,15.295c-0.937,4.162 -2.341,7.803 -4.214,10.925c-1.873,3.121 -4.162,5.878 -6.867,8.271c-2.705,2.393 -5.827,4.63 -9.364,6.711c7.491,3.538 13.005,8.792 16.543,15.763c3.537,6.971 5.306,16.283 5.306,27.936l0,12.485c0,19.561 -4.734,34.543 -14.202,44.948c-9.468,10.404 -24.606,15.606 -45.415,15.606l-43.387,0l0,-222.239Zm31.838,190.402l13.733,0c6.451,0 11.497,-0.937 15.139,-2.809c3.642,-1.873 6.399,-4.474 8.272,-7.804c1.872,-3.329 3.017,-7.283 3.433,-11.861c0.416,-4.578 0.624,-9.572 0.624,-14.982c0,-5.619 -0.312,-10.509 -0.936,-14.671c-0.624,-4.161 -1.925,-7.647 -3.902,-10.456c-1.977,-2.809 -4.734,-4.942 -8.271,-6.399c-3.538,-1.457 -8.22,-2.185 -14.046,-2.185l-14.046,0l0,71.167Zm0,-99.259l14.358,0c10.612,0 17.739,-2.653 21.381,-7.959c3.642,-5.307 5.462,-13.058 5.462,-23.254c0,-9.989 -2.029,-17.48 -6.086,-22.474c-4.058,-4.994 -11.393,-7.491 -22.006,-7.491l-13.109,0l0,61.178Z" style="fill-rule:nonzero;"/><path d="M957.94,65.86l-31.837,0l0,-7.179c0,-7.283 -1.717,-13.578 -5.15,-18.884c-3.434,-5.306 -9.208,-7.959 -17.324,-7.959c-4.37,0 -7.959,0.832 -10.769,2.497c-2.809,1.665 -4.994,3.797 -6.554,6.399c-1.561,2.601 -2.654,5.618 -3.278,9.051c-0.624,3.434 -0.936,7.023 -0.936,10.769c0,4.37 0.156,8.064 0.468,11.081c0.312,3.017 1.092,5.618 2.341,7.803c1.249,2.185 3.069,4.11 5.462,5.775c2.393,1.664 5.671,3.329 9.833,4.994l24.346,9.676c7.075,2.705 12.798,5.879 17.167,9.52c4.37,3.642 7.752,7.908 10.145,12.798c2.393,4.89 4.006,10.508 4.838,16.855c0.832,6.347 1.248,13.578 1.248,21.693c0,9.364 -0.936,18.052 -2.809,26.063c-1.873,8.012 -4.942,14.879 -9.208,20.601c-4.266,5.723 -9.936,10.249 -17.011,13.578c-7.075,3.33 -15.711,4.994 -25.907,4.994c-7.699,0 -14.879,-1.352 -21.537,-4.057c-6.659,-2.706 -12.382,-6.399 -17.168,-11.081c-4.786,-4.682 -8.584,-10.249 -11.393,-16.699c-2.809,-6.451 -4.214,-13.422 -4.214,-20.913l0,-11.862l31.838,0l0,9.989c0,5.826 1.717,11.081 5.15,15.763c3.434,4.682 9.208,7.023 17.324,7.023c5.41,0 9.624,-0.781 12.641,-2.341c3.018,-1.561 5.307,-3.746 6.867,-6.555c1.561,-2.809 2.549,-6.295 2.965,-10.457c0.417,-4.162 0.625,-8.739 0.625,-13.734c0,-5.826 -0.208,-10.612 -0.625,-14.358c-0.416,-3.745 -1.3,-6.763 -2.653,-9.052c-1.352,-2.289 -3.225,-4.162 -5.618,-5.618c-2.393,-1.457 -5.566,-3.017 -9.52,-4.682l-22.786,-9.364c-13.734,-5.619 -22.942,-13.058 -27.624,-22.318c-4.682,-9.26 -7.023,-20.861 -7.023,-34.803c0,-8.323 1.145,-16.231 3.434,-23.722c2.289,-7.491 5.67,-13.942 10.144,-19.352c4.474,-5.411 10.144,-9.729 17.011,-12.954c6.867,-3.225 14.879,-4.838 24.035,-4.838c7.907,0 15.138,1.457 21.693,4.37c6.555,2.913 12.173,6.763 16.855,11.549c4.682,4.786 8.272,10.144 10.769,16.075c2.497,5.93 3.745,12.017 3.745,18.26l0,15.606Z" style="fill-rule:nonzero;"/></g></g></svg>